/* XPM */
static char * bottom_left_active_xpm[] = {
"12 12 5 1",
" 	c None",
".	c #D8D8D8",
"+	c #FFFFFF",
"@	c #B2B2B2",
"#	c #000000",
".+...       ",
".+...       ",
".+...       ",
".+...       ",
".+...       ",
".+...       ",
".+...       ",
".+..........",
".+..........",
".+..........",
".@@@@@@@@@@@",
"############"};
