/* XPM */
static char * close_active_xpm[] = {
"22 24 5 1",
" 	c None",
".	c #FFFFFF",
"+	c #04142F",
"@	c #DED9C2",
"#	c #94918C",
"                      ",
"                      ",
"                      ",
"                      ",
"                      ",
"  ..................+ ",
"  .@@@@@@@@@@@@@@@@#+ ",
"  .@@@@@@@@@@@@@@@@#+ ",
"  .@@@@@@@@@@@@@@@@#+ ",
"  .@@@@@@@@@@@@@@@@#+ ",
"  .@@@@++@@@@++@@@@#+ ",
"  .@@@@@++@@++@@@@@#+ ",
"  .@@@@@@++++@@@@@@#+ ",
"  .@@@@@@@++@@@@@@@#+ ",
"  .@@@@@@++++@@@@@@#+ ",
"  .@@@@@++@@++@@@@@#+ ",
"  .@@@@++@@@@++@@@@#+ ",
"  .@@@@@@@@@@@@@@@@#+ ",
"  .@@@@@@@@@@@@@@@@#+ ",
"  .@@@@@@@@@@@@@@@@#+ ",
"  .#################+ ",
"  +++++++++++++++++++ ",
"                      ",
"                      "};
