/* XPM */
static char * hide_inactive_xpm[] = {
"20 24 5 1",
" 	c None",
".	c #FFFFFF",
"+	c #04142F",
"@	c #DED9C2",
"#	c #94918C",
"                    ",
"                    ",
"                    ",
"                    ",
"                    ",
"...................+",
".@@@@@@@@@@@@@@@@@#+",
".@@@@@@@@@@@@@@@@@#+",
".@@@@@@@@@@@@@@@@@#+",
".@@@@@@@@@@@@@@@@@#+",
".@@@@@@@@@@@@@@@@@#+",
".@@@@@@@@@@@@@@@@@#+",
".@@@@@@@@@@@@@@@@@#+",
".@@@@@@@@@@@@@@@@@#+",
".@@@@@@@@@@@@@@@@@#+",
".@@@@@@@@@@@@@@@@@#+",
".@@@@@+++++++@@@@@#+",
".@@@@@+++++++@@@@@#+",
".@@@@@@@@@@@@@@@@@#+",
".@@@@@@@@@@@@@@@@@#+",
".##################+",
"++++++++++++++++++++",
"                    ",
"                    "};
