/* XPM */
static char * title_2_active_xpm[] = {
"5 32 25 1",
" 	c #D8D8D8",
".	c #FFFFFF",
"+	c #3E8EE5",
"@	c #3F8EE5",
"#	c #3F8FE5",
"$	c #3F8FE7",
"%	c #2E6FE4",
"&	c #245CD4",
"*	c #245DD3",
"=	c #2258D6",
"-	c #245AD8",
";	c #255BDA",
">	c #245CDA",
",	c #225CDA",
"'	c #235DDB",
")	c #245EDC",
"!	c #255FDD",
"~	c #2761DF",
"{	c #295FE3",
"]	c #2662DE",
"^	c #2563DE",
"/	c #2461E0",
"(	c #2362DF",
"_	c #2357D4",
":	c #1A44AD",
"     ",
".....",
"     ",
"     ",
"+@#$$",
"%%%%%",
"&&&**",
"=====",
"=====",
"=====",
"-----",
";>>>>",
",,,,,",
"'''''",
")))))",
"!!!!!",
"~~~~~",
"{{{{{",
"]]^]]",
";>>>>",
",,,,,",
"'''''",
")))))",
"!!!!!",
"~~~~~",
"{{{{{",
"]]^]]",
"//((/",
"_____",
":::::",
"     ",
"     "};
