/* XPM */
static char * title_inactive_xpm[] = {
"19 24 64 1",
" 	c #7B9CE1",
".	c #7B9DE2",
"+	c #7B9CE2",
"@	c #7B9BE1",
"#	c #7B9BE2",
"$	c #7B9AE1",
"%	c #7A9AE1",
"&	c #7A99E0",
"*	c #7A9AE0",
"=	c #7A99DF",
"-	c #7999DF",
";	c #7999DE",
">	c #799ADF",
",	c #7998DF",
"'	c #7998DE",
")	c #7997DE",
"!	c #7996DE",
"~	c #7997DF",
"{	c #7996DF",
"]	c #7895DE",
"^	c #7895DD",
"/	c #7995DF",
"(	c #7995DE",
"_	c #7994DE",
":	c #7A96DF",
"<	c #7A97E0",
"[	c #7A96E0",
"}	c #7A95E0",
"|	c #7A95DF",
"1	c #7A94DF",
"2	c #7A96E1",
"3	c #7B97E0",
"4	c #7B98E1",
"5	c #7B97E1",
"6	c #7B99E1",
"7	c #7B98E0",
"8	c #7B99E2",
"9	c #7D9BE3",
"0	c #7D9CE4",
"a	c #7D9BE4",
"b	c #7F9FE6",
"c	c #7F9EE6",
"d	c #7E9EE5",
"e	c #7E9DE5",
"f	c #7E9EE6",
"g	c #7E9DE6",
"h	c #7FA2E6",
"i	c #7FA3E7",
"j	c #7FA2E7",
"k	c #7FA1E7",
"l	c #80A5E7",
"m	c #80A6E8",
"n	c #81A5E7",
"o	c #81A4E7",
"p	c #81A3E7",
"q	c #81A7E8",
"r	c #81A8E9",
"s	c #81A7E9",
"t	c #82A9E9",
"u	c #82AAEA",
"v	c #82A9EA",
"w	c #80A5E8",
"x	c #7A93DF",
"y	c #7A93E0",
" . +@@@@@#$$$$$$$$%",
"&*&&=--;->;;;-;,,')",
"!~!{!!!!!{!!!!!!!!]",
"!!!!!^^^]]^^^]]]]^^",
"!~!!!!!!!~!{!{{//(_",
":<:::::::<:[:[[}}|1",
":<:::::::<:[:[[}}|1",
"[2[[[[[[[2[2[2222[[",
"343333333535355553[",
"6644477344333555533",
"6866666668686888866",
"909999999a9a9aaaa99",
"909999999a9a9aaaa99",
"bbcccddeffeeeggggee",
"hihhhhhhhihjhjjjjkk",
"lmlmlllllmlllnnooop",
"qrqsqqqqqsqsqssrrqq",
"tutvtttttvtvtvvuutt",
"tutvtttttvtvtvvuutt",
"qrqsqqqqqsqsqssrrqq",
"lmlllllllwlwlwwmmll",
"efeeeeeeegegeggfgee",
"xyxxxxxxxyxyxyyyyxx",
"xyxxxxxxxyxyxyyyyxx"};
