/* XPM */
static char * title_active_xpm[] = {
"19 25 58 1",
" 	c #005CEA",
".	c #005CE9",
"+	c #0057E6",
"@	c #0058E6",
"#	c #0055E4",
"$	c #0054E4",
"%	c #0053E4",
"&	c #0053E3",
"*	c #0054E3",
"=	c #0053E2",
"-	c #0052E2",
";	c #0052E1",
">	c #0051E1",
",	c #0054E5",
"'	c #0055E5",
")	c #0053E5",
"!	c #0054E6",
"~	c #0055E7",
"{	c #0055E6",
"]	c #0056EA",
"^	c #0055E9",
"/	c #0055EA",
"(	c #0056EB",
"_	c #0058EE",
":	c #005AF2",
"<	c #005BF2",
"[	c #005BF3",
"}	c #005AF3",
"|	c #015CF5",
"1	c #015DF5",
"2	c #005DF5",
"3	c #005CF5",
"4	c #005EF9",
"5	c #005FF9",
"6	c #0060F9",
"7	c #0162F9",
"8	c #0163F9",
"9	c #0063FA",
"0	c #0062FA",
"a	c #0269FE",
"b	c #0268FE",
"c	c #0267FD",
"d	c #0167FD",
"e	c #026AFE",
"f	c #036CFF",
"g	c #026BFE",
"h	c #0265FA",
"i	c #0165FB",
"j	c #0065FC",
"k	c #005FF8",
"l	c #0060FA",
"m	c #004DE3",
"n	c #004CE2",
"o	c #004BE1",
"p	c #004AE0",
"q	c #0144D0",
"r	c #0043CF",
"s	c #0143CF",
"             ......",
"             ......",
"+++@@@@@@@@@@@@@@@@",
"####$$$$$$$$$%&&&&&",
"**************=====",
"&&&---------;>>>>>>",
",,'''''''''''',,,,,",
"))),,,,,,,,,,,)))))",
"!!!,,,,,,,,,,,)))))",
"~~~~~~~~~~~~~~{{{{{",
"]]]^^^^^^^^^^//////",
"(((////////////////",
"___________________",
"::<<<<<<<<<<<[}}}}}",
"||12222222222233333",
"4445555555556666666",
"7788888888888900000",
"aaaabbbbbbbbbcddddd",
"eeeeeeeeeeeeeeeeeee",
"ffffgggggggggeeeeee",
"aaaeeeeeeeeeeeeeeee",
"hhhhiiiiiiiiijjjjjj",
"k5566lllllllll65555",
"mmmmnnnnnnnoooopppp",
"qqqrrrrrrrrrrrsssss"};
