/* XPM */
static char * title_button_border_xpm[] = {
"21 21 69 1",
" 	c None",
".	c #B7C6F0",
"+	c #F5F7FD",
"@	c #FFFFFF",
"#	c #DCE5FD",
"$	c #739AF8",
"%	c #608CF7",
"&	c #5584F6",
"*	c #4D7EF6",
"=	c #487AF5",
"-	c #4276F5",
";	c #4478F5",
">	c #3E73F5",
",	c #3B71F5",
"'	c #336CF4",
")	c #306AF4",
"!	c #2864F4",
"~	c #1F5DEF",
"{	c #3467E0",
"]	c #D2DBF2",
"^	c #769CF8",
"/	c #305CC5",
"(	c #6590F7",
"_	c #1546B9",
":	c #5886F6",
"<	c #1848BB",
"[	c #5282F6",
"}	c #1D4CBC",
"|	c #4679F5",
"1	c #1C4CBD",
"2	c #1B4BBD",
"3	c #3C72F4",
"4	c #194BBE",
"5	c #376EF4",
"6	c #1649BE",
"7	c #326BF4",
"8	c #1248BF",
"9	c #2B66F4",
"0	c #0F47C0",
"a	c #2562F3",
"b	c #0A44BF",
"c	c #1E5DF3",
"d	c #0641C0",
"e	c #1859F3",
"f	c #023FBF",
"g	c #1456F3",
"h	c #013DBE",
"i	c #0E50ED",
"j	c #003AB9",
"k	c #285EDF",
"l	c #1F4EB8",
"m	c #D0DAF1",
"n	c #2856C3",
"o	c #0D3FB6",
"p	c #1144BD",
"q	c #1245BB",
"r	c #1445B9",
"s	c #1244B9",
"t	c #1345BC",
"u	c #1346BD",
"v	c #1045BE",
"w	c #0D45C0",
"x	c #0A45C1",
"y	c #0844C3",
"z	c #033FC0",
"A	c #013FC3",
"B	c #003BBE",
"C	c #1F4EB9",
"D	c #CFD8ED",
" .+@@@@@@@@@@@@@@@@. ",
".#$%&*=-;>>,,'')!~{].",
"@^                 /+",
"@(                 _@",
"@:                 <@",
"@[                 }@",
"@*                 }@",
"@|                 1@",
"@|                 2@",
"@3                 4@",
"@5                 6@",
"@7                 8@",
"@9                 0@",
"@a                 b@",
"@c                 d@",
"@e                 f@",
"@g                 h@",
"@i                 j@",
"+k                 l@",
".mnopqrstuvwxydzABCD.",
" .@@@@@@@@@@@@@@@@+. "};
