/* XPM */
static char * title_button_xpm[] = {
"17 17 257 2",
"  	c #90AFF9",
". 	c #94B2F9",
"+ 	c #85A7F8",
"@ 	c #759CF8",
"# 	c #6E97F8",
"$ 	c #6892F7",
"% 	c #6690F7",
"& 	c #628EF7",
"* 	c #5F8CF7",
"= 	c #5E8BF7",
"- 	c #5988F6",
"; 	c #5685F6",
"> 	c #5082F6",
", 	c #497CF5",
"' 	c #3F75F5",
") 	c #326BF2",
"! 	c #235CE3",
"~ 	c #97B4F9",
"{ 	c #9AB7FA",
"] 	c #89AAF9",
"^ 	c #7AA0F8",
"/ 	c #729AF8",
"( 	c #6D95F8",
"_ 	c #6892F8",
": 	c #658FF7",
"< 	c #618DF7",
"[ 	c #5D8AF7",
"} 	c #5987F6",
"| 	c #5283F6",
"1 	c #4C7EF6",
"2 	c #4377F5",
"3 	c #376EF2",
"4 	c #285FE3",
"5 	c #8DADF9",
"6 	c #7FA3F8",
"7 	c #7199F8",
"8 	c #6A93F8",
"9 	c #648EF7",
"0 	c #5E8AF7",
"a 	c #5986F7",
"b 	c #5482F6",
"c 	c #5180F6",
"d 	c #4B7CF5",
"e 	c #4A7CF5",
"f 	c #4478F5",
"g 	c #3A72F4",
"h 	c #346CF2",
"i 	c #2A61E3",
"j 	c #799FF8",
"k 	c #7CA1F8",
"l 	c #6791F8",
"m 	c #608BF7",
"n 	c #5985F7",
"o 	c #5381F6",
"p 	c #4D7BF6",
"q 	c #4677F5",
"r 	c #4173F5",
"s 	c #3A6FF4",
"t 	c #386EF4",
"u 	c #346CF4",
"v 	c #326CF4",
"w 	c #316BF4",
"x 	c #3069F1",
"y 	c #2C62E4",
"z 	c #7099F8",
"A 	c #628CF8",
"B 	c #5B86F7",
"C 	c #5480F7",
"D 	c #4777F6",
"E 	c #4072F5",
"F 	c #3A6FF5",
"G 	c #346DF4",
"H 	c #306BF4",
"I 	c #2D69F4",
"J 	c #2C69F5",
"K 	c #2D69F5",
"L 	c #2E69F2",
"M 	c #2C63E5",
"N 	c #658FF8",
"O 	c #5E89F7",
"P 	c #5783F7",
"Q 	c #507EF6",
"R 	c #4A79F6",
"S 	c #4375F5",
"T 	c #3D71F5",
"U 	c #366EF4",
"V 	c #2F6BF5",
"W 	c #2B69F5",
"X 	c #2867F5",
"Y 	c #2766F5",
"Z 	c #2A68F5",
"` 	c #2C69F2",
" .	c #2A62E4",
"..	c #608CF7",
"+.	c #628DF8",
"@.	c #5B87F7",
"#.	c #5482F7",
"$.	c #4E7CF6",
"%.	c #4778F6",
"&.	c #4174F5",
"*.	c #3A71F5",
"=.	c #346EF4",
"-.	c #2D6BF5",
";.	c #2869F5",
">.	c #2467F5",
",.	c #2266F5",
"'.	c #2567F5",
").	c #2968F2",
"!.	c #2963E4",
"~.	c #5D89F7",
"{.	c #5683F6",
"].	c #507FF6",
"^.	c #477AF5",
"/.	c #4178F5",
"(.	c #3A74F5",
"_.	c #3472F5",
":.	c #2C6FF5",
"<.	c #276CF5",
"[.	c #236AF6",
"}.	c #2069F6",
"|.	c #2268F5",
"1.	c #2569F2",
"2.	c #2562E6",
"3.	c #5181F6",
"4.	c #5785F7",
"5.	c #5987F7",
"6.	c #5281F6",
"7.	c #497CF6",
"8.	c #4179F6",
"9.	c #3B77F5",
"0.	c #3474F5",
"a.	c #2C72F6",
"b.	c #266FF6",
"c.	c #226DF6",
"d.	c #1E6BF6",
"e.	c #1F6AF6",
"f.	c #216AF3",
"g.	c #2162E6",
"h.	c #4B7DF5",
"i.	c #5483F6",
"j.	c #5583F7",
"k.	c #5081F6",
"l.	c #487CF6",
"m.	c #3E7AF6",
"n.	c #3879F6",
"o.	c #3278F6",
"p.	c #2D76F6",
"q.	c #2673F7",
"r.	c #2171F7",
"s.	c #1C6FF6",
"t.	c #1C6DF6",
"u.	c #1C6AF4",
"v.	c #1C61E6",
"w.	c #4F80F6",
"x.	c #4F81F6",
"y.	c #4C80F7",
"z.	c #487EF6",
"A.	c #3F7DF6",
"B.	c #367CF6",
"C.	c #327BF6",
"D.	c #2D7AF7",
"E.	c #2677F7",
"F.	c #2174F7",
"G.	c #1B71F7",
"H.	c #186EF7",
"I.	c #186AF4",
"J.	c #165FE7",
"K.	c #3D73F4",
"L.	c #447CF6",
"M.	c #3B7DF8",
"N.	c #437FF7",
"O.	c #487FF7",
"P.	c #467EF7",
"Q.	c #437EF7",
"R.	c #3B7DF7",
"S.	c #2D7CF8",
"T.	c #2B7CF8",
"U.	c #2D7CF7",
"V.	c #2679F8",
"W.	c #2077F7",
"X.	c #1973F7",
"Y.	c #166FF7",
"Z.	c #1369F4",
"`.	c #105DE8",
" +	c #4077F5",
".+	c #3A7CF7",
"++	c #3A7EF8",
"@+	c #3E7EF8",
"#+	c #347CF8",
"$+	c #2D7DF7",
"%+	c #257AF8",
"&+	c #1E77F8",
"*+	c #1773F8",
"=+	c #116DF7",
"-+	c #0D66F4",
";+	c #0B59E7",
">+	c #2E68F4",
",+	c #3A71F4",
"'+	c #3C79F6",
")+	c #2E7CF8",
"!+	c #327CF8",
"~+	c #337DF8",
"{+	c #2A7CF8",
"]+	c #247AF8",
"^+	c #1D77F8",
"/+	c #1573F8",
"(+	c #0E6CF8",
"_+	c #0963F4",
":+	c #0556E7",
"<+	c #2562F4",
"[+	c #3971F4",
"}+	c #3D74F5",
"|+	c #3D74F6",
"1+	c #3B75F5",
"2+	c #3976F5",
"3+	c #3777F5",
"4+	c #2C78F7",
"5+	c #2577F7",
"6+	c #1F76F7",
"7+	c #1972F7",
"8+	c #116EF8",
"9+	c #0B68F7",
"0+	c #0560F4",
"a+	c #0253E6",
"b+	c #1C5BEF",
"c+	c #2863F0",
"d+	c #2F68F0",
"e+	c #336BF1",
"f+	c #346CF1",
"g+	c #316CF2",
"h+	c #316DF2",
"i+	c #2E6FF2",
"j+	c #2A70F2",
"k+	c #2570F3",
"l+	c #1F6FF3",
"m+	c #196DF4",
"n+	c #136AF4",
"o+	c #0760F3",
"p+	c #025AF0",
"q+	c #004DE2",
"r+	c #134FDF",
"s+	c #1B55DF",
"t+	c #215AE2",
"u+	c #255CE1",
"v+	c #265DE0",
"w+	c #245CE1",
"x+	c #235EE2",
"y+	c #215EE2",
"z+	c #1E5EE2",
"A+	c #1B5FE5",
"B+	c #165EE5",
"C+	c #135DE6",
"D+	c #0E5BE5",
"E+	c #0958E6",
"F+	c #0454E6",
"G+	c #014EE2",
"H+	c #0045D3",
"  . + @ # $ % & * = - ; > , ' ) ! ",
"~ { ] ^ / ( _ : & < [ } | 1 2 3 4 ",
"] 5 6 7 8 9 0 a b c d e f ' g h i ",
"j k 7 l m n o p q r s t u v w x y ",
"# z 8 A B C p D E F G H I J K L M ",
"_ 8 N O P Q R S T U V W X Y Z `  .",
"..+.m @.#.$.%.&.*.=.-.;.>.,.'.).!.",
"} [ ~.@.{.].^./.(._.:.<.[.}.|.1.2.",
"3.4.a 5.4.6.7.8.9.0.a.b.c.d.e.f.g.",
"h.i.#.j.j.k.l.m.n.o.p.q.r.s.t.u.v.",
"f w.> x.x.y.z.A.B.C.D.E.F.G.H.I.J.",
"K.L.M.N.O.P.Q.R.S.T.U.V.W.X.Y.Z.`.",
"U  +.+++@+@+R.#+T.T.$+%+&+*+=+-+;+",
">+,+'+)+!+~+!+S.{+{+{+]+^+/+(+_+:+",
"<+w [+}+|+1+2+3+o.4+5+6+7+8+9+0+a+",
"b+c+d+e+f+g+h+i+j+k+l+m+n+-+o+p+q+",
"r+s+t+u+v+w+x+y+z+A+B+C+D+E+F+G+H+"};
