/* XPM */
static char * menu_inactive_xpm[] = {
"15 15 26 1",
" 	c #7C9EE3",
".	c #7A9AE0",
"+	c #7A99DF",
"@	c #7997DF",
"#	c #7997DE",
"$	c #7895DE",
"%	c #7895DD",
"&	c #7996DE",
"*	c #7996DF",
"=	c #7A97E0",
"-	c #7A96DF",
";	c #7A96E0",
">	c #7A96E1",
",	c #7B97E1",
"'	c #7B97E0",
")	c #7B98E1",
"!	c #7C9AE3",
"~	c #7D9BE4",
"{	c #7D9BE3",
"]	c #7E9EE6",
"^	c #7E9DE5",
"/	c #7FA3E7",
"(	c #7FA2E6",
"_	c #7FA2E7",
":	c #80A6E8",
"<	c #80A5E7",
"               ",
".++++++++++.+++",
"@##########@###",
"$%%%%%%%%%%$%%%",
"@&*&&&*&&*&@&*&",
"=-;---;--;-=-;-",
"=-;;;-;;-;;=-;;",
">;>;;;>;;>;>;>;",
",'''''''''','''",
")))))))))))))))",
"!!!!!!!!!!!!!!!",
"~{~{{{~{{~{~{~{",
"]^^^^^^^^^^]^^^",
"/(_(((_((_(/(_(",
":<<<<<<<<<<:<<<"};
