/* XPM */
static char * menu_pressed_xpm[] = {
"15 15 12 1",
" 	c #2258D5",
".	c #2258D6",
"+	c #2359D7",
"@	c #245AD8",
"#	c #255CDA",
"$	c #225CDA",
"%	c #235CDA",
"&	c #235DDB",
"*	c #245EDC",
"=	c #255FDD",
"-	c #2660DE",
";	c #2761E0",
"               ",
"...............",
"...............",
"...............",
"+++++++++++++++",
"@@@@@@@@@@@@@@@",
"###############",
"$%$$%$$$%$$%$$$",
"$$$$$$$$$$$$$$$",
"&&&&&&&&&&&&&&&",
"***************",
"***************",
"===============",
"---------------",
";;;;;;;;;;;;;;;"};
