/* XPM */
static char * close_pressed_xpm[] = {
"22 24 5 1",
" 	c None",
".	c #000000",
"+	c #B2B2B2",
"@	c #DED9C2",
"#	c #FFFFFF",
"                      ",
"                      ",
"                      ",
"                      ",
"                      ",
"  .+@@@@@@@@@@@@@@@@# ",
"  .+@@@@@@@@@@@@@@@@# ",
"  .+@@@@@@@@@@@@@@@@# ",
"  .+@@@@@@@@@@@@@@@@# ",
"  .+@@@@@@@@@@@@@@@@# ",
"  .+@@@@@@@@@@@@@@@@# ",
"  .+@@@@..@@@@..@@@@# ",
"  .+@@@@@..@@..@@@@@# ",
"  .+@@@@@@....@@@@@@# ",
"  .+@@@@@@@..@@@@@@@# ",
"  .+@@@@@@....@@@@@@# ",
"  .+@@@@@..@@..@@@@@# ",
"  .+@@@@..@@@@..@@@@# ",
"  .+@@@@@@@@@@@@@@@@# ",
"  .+@@@@@@@@@@@@@@@@# ",
"  .+@@@@@@@@@@@@@@@@# ",
"  .################## ",
"                      ",
"                      "};
