/* XPM */
static char * title_1_active_xpm[] = {
"5 32 32 1",
" 	c #D8D8D8",
".	c #FFFFFF",
"+	c #3E8EE9",
"@	c #3F8EE9",
"#	c #408EE9",
"$	c #408FE9",
"%	c #408FEA",
"&	c #3783E1",
"*	c #3783E0",
"=	c #2B69E1",
"-	c #255DD5",
";	c #2258D5",
">	c #2258D6",
",	c #2359D7",
"'	c #245AD8",
")	c #255CDA",
"!	c #225CDA",
"~	c #235CDA",
"{	c #235DDB",
"]	c #245EDC",
"^	c #255FDD",
"/	c #2660DE",
"(	c #2761E0",
"_	c #295FE3",
":	c #2661E0",
"<	c #2563DE",
"[	c #2463DD",
"}	c #2461E0",
"|	c #2362DF",
"1	c #245ADA",
"2	c #1F4EC3",
"3	c #1842A9",
"     ",
".....",
"     ",
"     ",
"+@#$%",
"&&*&*",
"=====",
"-----",
";;;;;",
">>>>>",
">>>>>",
">>>>>",
",,,,,",
"'''''",
")))))",
"!~!!!",
"!!!!!",
"{{{{{",
"]]]]]",
"]]]]]",
"^^^^^",
"/////",
"(((((",
"_____",
"((((:",
"<<<<[",
"}}}}|",
"11111",
"22222",
"33333",
"     ",
"     "};
