/* XPM */
static char * title_5_inactive_xpm[] = {
"5 32 53 1",
" 	c #D8D8D8",
".	c #FFFFFF",
"+	c #6F92E1",
"@	c #6F92E2",
"#	c #98B3E8",
"$	c #98B3E9",
"%	c #98B2E9",
"&	c #96B4E9",
"*	c #96B5EA",
"=	c #96B4EA",
"-	c #97B4EA",
";	c #85A8E6",
">	c #85A8E7",
",	c #7C9EE2",
"'	c #7C9EE3",
")	c #7A9AE0",
"!	c #7A99DF",
"~	c #7997DE",
"{	c #7997DF",
"]	c #7895DE",
"^	c #7895DD",
"/	c #7996DE",
"(	c #7996DF",
"_	c #7A96DF",
":	c #7A97E0",
"<	c #7A96E0",
"[	c #7A96E1",
"}	c #7B97E0",
"|	c #7B97E1",
"1	c #7B98E1",
"2	c #7C9AE2",
"3	c #7C9AE3",
"4	c #7D9BE3",
"5	c #7D9BE4",
"6	c #7E9EE5",
"7	c #7E9EE6",
"8	c #7E9DE5",
"9	c #7FA2E6",
"0	c #7FA3E7",
"a	c #7FA2E7",
"b	c #80A5E7",
"c	c #80A6E8",
"d	c #81A8E8",
"e	c #81A8E9",
"f	c #82A9E9",
"g	c #82A9EA",
"h	c #82A8E9",
"i	c #80A6E7",
"j	c #7F9FE6",
"k	c #7B95E0",
"l	c #7B95E1",
"m	c #7A93DF",
"n	c #7A93E0",
"     ",
".....",
"     ",
"     ",
"+@+@+",
"#$#%$",
"&*&=-",
";>;>;",
",''''",
"))!!!",
"~{~~~",
"]]^^^",
"/{/(/",
"_:_<_",
"_:_<<",
"<[<[<",
"}|}}}",
"11111",
"23333",
"45454",
"67888",
"909a9",
"bcbbb",
"dedee",
"fgfgf",
"hhhhh",
"icccc",
"jjjjj",
"klkll",
"mnmnm",
"     ",
"     "};
