/* XPM */
static char * menu_inactive_xpm[] = {
"21 21 59 1",
" 	c #7EA2E4",
".	c #7EA3E5",
"+	c #7EA2E5",
"@	c #7B9CE1",
"#	c #7B9DE2",
"$	c #7B9CE2",
"%	c #7B9BE1",
"&	c #7B9BE2",
"*	c #7B9AE1",
"=	c #7A99E0",
"-	c #7A9AE0",
";	c #7A99DF",
">	c #7999DF",
",	c #7999DE",
"'	c #799ADF",
")	c #7998DF",
"!	c #7998DE",
"~	c #7996DE",
"{	c #7997DF",
"]	c #7996DF",
"^	c #7895DD",
"/	c #7895DE",
"(	c #7995DF",
"_	c #7995DE",
":	c #7A96DF",
"<	c #7A97E0",
"[	c #7A96E0",
"}	c #7A95E0",
"|	c #7A95DF",
"1	c #7A96E1",
"2	c #7B97E0",
"3	c #7B98E1",
"4	c #7B97E1",
"5	c #7B99E1",
"6	c #7B98E0",
"7	c #7B99E2",
"8	c #7D9BE3",
"9	c #7D9CE4",
"0	c #7D9BE4",
"a	c #7F9FE6",
"b	c #7F9EE6",
"c	c #7E9EE5",
"d	c #7E9DE5",
"e	c #7E9EE6",
"f	c #7E9DE6",
"g	c #7FA2E6",
"h	c #7FA3E7",
"i	c #7FA2E7",
"j	c #7FA1E7",
"k	c #80A5E7",
"l	c #80A6E8",
"m	c #81A5E7",
"n	c #81A4E7",
"o	c #81A7E8",
"p	c #81A8E9",
"q	c #81A7E9",
"r	c #82A9E9",
"s	c #82AAEA",
"t	c #82A9EA",
" .  .       + + ++.. ",
"@#@@#@$%%%%%&********",
"=-==-==;>>,>',,,>,))!",
"~{~~{~]~~~~~]~~~~~~~~",
"~~~~~~~~^^^//^^^////^",
"~{~~{~~~~~~~{~]~]]((_",
":<::<:::::::<:[:[[}}|",
":<::<:::::::<:[:[[}}|",
"[1[[1[[[[[[[1[1[1111[",
"232232222222424244442",
"553553336623322244442",
"575575555555757577775",
"898898888888080800008",
"898898888888080800008",
"aabaabbbccdeedddffffd",
"ghgghggggggghgigiiiij",
"klkklklkkkkklkkkmmnnn",
"opoopoqoooooqoqoqqppo",
"rsrrsrtrrrrrtrtrttssr",
"rsrrsrtrrrrrtrtrttssr",
"opoopoqoooooqoqoqqppo"};
