/* XPM */
static char * menu_active_xpm[] = {
"21 21 48 1",
" 	c #0366F2",
".	c #0365F1",
"+	c #005CEA",
"@	c #005CE9",
"#	c #0057E6",
"$	c #0058E6",
"%	c #0055E4",
"&	c #0054E4",
"*	c #0053E4",
"=	c #0053E3",
"-	c #0054E3",
";	c #0053E2",
">	c #0052E2",
",	c #0052E1",
"'	c #0051E1",
")	c #0054E5",
"!	c #0055E5",
"~	c #0053E5",
"{	c #0054E6",
"]	c #0055E7",
"^	c #0055E6",
"/	c #0056EA",
"(	c #0055E9",
"_	c #0055EA",
":	c #0056EB",
"<	c #0058EE",
"[	c #005AF2",
"}	c #005BF2",
"|	c #005BF3",
"1	c #005AF3",
"2	c #015CF5",
"3	c #015DF5",
"4	c #005DF5",
"5	c #005CF5",
"6	c #005EF9",
"7	c #005FF9",
"8	c #0060F9",
"9	c #0162F9",
"0	c #0163F9",
"a	c #0063FA",
"b	c #0062FA",
"c	c #0269FE",
"d	c #0268FE",
"e	c #0267FD",
"f	c #0167FD",
"g	c #026AFE",
"h	c #036CFF",
"i	c #026BFE",
"   ..................",
"+++++++++++++@@@@@@@@",
"###$$$$$$$$$$$$$$$$$$",
"%%%%&&&&&&&&&*=======",
"--------------;;;;;;;",
"===>>>>>>>>>,''''''''",
"))!!!!!!!!!!!!)))))))",
"~~~)))))))))))~~~~~~~",
"{{{)))))))))))~~~~~~~",
"]]]]]]]]]]]]]]^^^^^^^",
"///((((((((((________",
":::__________________",
"<<<<<<<<<<<<<<<<<<<<<",
"[[}}}}}}}}}}}|1111111",
"223444444444445555555",
"666777777777888888888",
"9900000000000abbbbbbb",
"ccccdddddddddefffffff",
"ggggggggggggggggggggg",
"hhhhiiiiiiiiigggggggg",
"cccgggggggggggggggggg"};
